<svg xmlns="http://www.w3.org/2000/svg" width="419.251" height="419.251"><path d="M381.64 19.32h-24.5V12.5c0-6.9-5.6-12.5-12.5-12.5s-12.5 5.6-12.5 12.5v6.82h-65V12.5c0-6.9-5.6-12.5-12.5-12.5s-12.5 5.6-12.5 12.5v6.82h-65V12.5c0-6.9-5.6-12.5-12.5-12.5s-12.5 5.6-12.5 12.5v6.82h-65V12.5c0-6.9-5.6-12.5-12.5-12.5s-12.5 5.6-12.5 12.5v6.82H37.6c-17.9 0-32.5 14.58-32.5 32.5V99.1c0 13.48 8.28 25.08 20 30v257.65c0 17.92 14.6 32.5 32.5 32.5h304.04c17.92 0 32.5-14.58 32.5-32.5V129.1c11.74-4.92 20-16.52 20-30V51.8c0-17.92-14.57-32.5-32.5-32.5zM30.1 51.82c0-4.14 3.37-7.5 7.5-7.5h24.53V50c0 6.9 5.6 12.5 12.5 12.5s12.5-5.6 12.5-12.5v-5.68h65V50c0 6.9 5.6 12.5 12.5 12.5s12.5-5.6 12.5-12.5v-5.68h65V50c0 6.9 5.6 12.5 12.5 12.5s12.5-5.6 12.5-12.5v-5.68h65V50c0 6.9 5.6 12.5 12.5 12.5s12.5-5.6 12.5-12.5v-5.68h24.5c4.15 0 7.5 3.36 7.5 7.5V99.1c0 4.13-3.35 7.5-7.5 7.5h-344c-4.14 0-7.5-3.37-7.5-7.5V51.8zm331.54 342.43H57.6c-4.13 0-7.5-3.36-7.5-7.5V131.6h319.04v255.15c0 4.14-3.36 7.5-7.5 7.5zm-109.82-194.4c6.9 0 12.5-5.6 12.5-12.5s-5.6-12.5-12.5-12.5h-84.4c-6.9 0-12.5 5.6-12.5 12.5v61.56c0 6.93 5.6 12.5 12.5 12.5h71.9v43.45h-71.9c-6.9 0-12.5 5.6-12.5 12.5s5.6 12.5 12.5 12.5h84.4c6.9 0 12.5-5.6 12.5-12.5V248.9c0-6.9-5.6-12.5-12.5-12.5h-71.9v-36.56h71.9z"/></svg>