<svg xmlns="http://www.w3.org/2000/svg" width="485.213" height="485.212" fill="#353e8f"><path d="M60.65 75.82V15.16C60.65 6.78 67.43 0 75.82 0c8.38 0 15.16 6.78 15.16 15.16v60.66c0 8.38-6.78 15.16-15.16 15.16-8.4 0-15.17-6.78-15.17-15.16zm257.77 15.16c8.38 0 15.17-6.78 15.17-15.16V15.16C333.6 6.78 326.8 0 318.4 0c-8.38 0-15.16 6.78-15.16 15.16v60.66c0 8.38 6.78 15.16 15.16 15.16zm166.8 272.93c0 67-54.32 121.3-121.3 121.3-67 0-121.3-54.3-121.3-121.3 0-66.96 54.3-121.3 121.3-121.3 66.98 0 121.3 54.34 121.3 121.3zm-30.33 0c0-50.13-40.84-90.95-91-90.95s-91 40.8-91 90.98c0 50.18 40.8 91 91 91 50.17 0 91-40.82 91-91zM121.3 182H60.66v60.65h60.66V182zm-60.64 151.6h60.66v-60.64H60.66v60.65zm90.98-90.96h60.65v-60.64h-60.67v60.66zm0 91h60.65v-60.66h-60.67v60.65zm-121.3 27.3v-209.3H363.9v60.66h30.34V94c0-18.42-14.7-33.35-32.85-33.35h-12.67v15.17c0 16.7-13.6 30.32-30.33 30.32-16.72 0-30.3-13.62-30.3-30.32V60.65H106.13v15.17c0 16.7-13.6 30.32-30.32 30.32-16.73 0-30.32-13.62-30.32-30.32V60.65H32.84C14.7 60.65 0 75.58 0 94v266.9c0 18.35 14.7 33.34 32.86 33.34h179.42V363.9H32.86c-1.38 0-2.53-1.4-2.53-3zM303.27 242.6v-60.65H242.6v60.66h60.66zM409.4 363.9h-45.5v-45.48c0-8.38-6.77-15.16-15.15-15.16s-15.16 6.78-15.16 15.16v60.65c0 8.38 6.74 15.17 15.13 15.17h60.65c8.37 0 15.15-6.8 15.15-15.17 0-8.38-6.78-15.16-15.16-15.16z"/></svg>