<svg xmlns="http://www.w3.org/2000/svg" width="512pt" height="512pt" viewBox="-87 0 512 512.001"><g fill-rule="evenodd"><path d="M337.04 100.15c0-.1 0-.22-.02-.33-.03-.43-.07-.86-.16-1.28-.08-.42-.2-.84-.34-1.25-.04-.1-.07-.2-.1-.3-.15-.4-.32-.78-.5-1.14-.02-.02-.03-.04-.04-.06-.2-.4-.43-.75-.7-1.1-.05-.1-.12-.18-.18-.27-.27-.35-.55-.7-.87-1l-90.5-90.5c-.3-.32-.65-.6-1-.87-.1-.06-.18-.13-.27-.2-.36-.25-.72-.5-1.1-.68-.02-.02-.05-.03-.07-.04-.37-.2-.75-.35-1.13-.5-.1-.03-.2-.07-.3-.1-.42-.14-.83-.26-1.25-.35-.43-.1-.86-.14-1.3-.17-.1 0-.2 0-.3 0-.13-.02-.24-.03-.35-.03H10C4.48 0 0 4.48 0 10v428.02c0 5.53 4.48 10 10 10h150.55V502c0 3.64 1.98 7 5.16 8.75 3.2 1.76 7.1 1.66 10.17-.28l38.1-23.9 38.07 23.9c1.62 1.02 3.47 1.53 5.32 1.53 1.66 0 3.33-.4 4.84-1.25 3.18-1.76 5.16-5.1 5.16-8.75v-53.98h59.7c5.52 0 10-4.47 10-10V100.5c0-.12-.02-.23-.02-.35zm-90.47-66l56.34 56.34h-56.33zm-90.95 274.72c-.7-1.9-1.85-5.03-1.87-6.3.78-.98 3.5-2.7 5.15-3.74 3.56-2.25 7.6-4.8 10.53-8.8 2.96-4.03 4.16-8.7 5.22-12.8.47-1.8 1.22-4.7 1.86-5.8.36-.07 1.1-.18 2.48-.18 1.12 0 2.36.07 3.68.13 1.52.08 3.08.16 4.72.16 3.6 0 6.5-.4 9.14-1.3 4.6-1.52 8.3-4.5 11.54-7.1 1.8-1.45 4.8-3.87 5.85-4.02 1.15.15 4.16 2.57 5.96 4.02 3.25 2.6 6.93 5.58 11.54 7.1 2.64.9 5.54 1.3 9.14 1.3 1.63 0 3.2-.08 4.7-.16 1.33-.06 2.58-.13 3.7-.13 1.38 0 2.1.1 2.47.18.65 1.1 1.4 4 1.86 5.8 1.06 4.1 2.27 8.77 5.23 12.8 2.9 4 6.95 6.55 10.52 8.8 1.66 1.05 4.37 2.76 5.15 3.73-.03 1.28-1.17 4.4-1.87 6.3-1.5 4.06-3.18 8.66-3.18 13.75 0 5.1 1.7 9.7 3.17 13.74.7 1.9 1.84 5.04 1.87 6.3-.78.98-3.5 2.7-5.15 3.74-3.57 2.25-7.6 4.8-10.53 8.8-2.97 4.03-4.18 8.7-5.24 12.8-.46 1.8-1.2 4.7-1.85 5.8-.35.08-1.08.18-2.47.18-1.1 0-2.36-.06-3.68-.13-1.5-.07-3.08-.15-4.7-.15-3.6 0-6.5.4-9.15 1.28-4.6 1.54-8.3 4.5-11.54 7.12-1.77 1.43-4.73 3.8-5.9 4-1.18-.2-4.13-2.57-5.9-4-3.25-2.62-6.94-5.58-11.54-7.12-2.64-.87-5.54-1.28-9.15-1.28-1.62 0-3.2.08-4.7.15-1.32.07-2.57.13-3.7.13-1.37 0-2.1-.1-2.46-.18-.63-1.1-1.38-4-1.85-5.8-1.06-4.1-2.26-8.77-5.22-12.8-2.93-4-6.97-6.55-10.53-8.8-1.66-1.04-4.37-2.76-5.15-3.73.03-1.27 1.17-4.4 1.87-6.3 1.5-4.06 3.17-8.65 3.17-13.74 0-5.08-1.7-9.68-3.18-13.73zm91.74 175.05l-28.1-17.62c-3.24-2.03-7.37-2.03-10.62 0l-28.1 17.62v-90c1.08-.02 2.12-.06 3.13-.1 1.33-.08 2.58-.14 3.7-.14 1.78 0 2.54.16 2.83.26 1.2.4 3.48 2.24 5.32 3.72 4.67 3.76 10.48 8.43 18.44 8.43 7.96 0 13.77-4.68 18.43-8.44 1.83-1.48 4.12-3.32 5.3-3.72.3-.1 1.07-.26 2.84-.26 1.13 0 2.38.06 3.7.13 1 .06 2.06.1 3.12.13v90zm20-55.9v-42.15c2.97-4.04 4.2-8.82 5.26-12.88.56-2.14 1.3-5.06 2-6 .68-.93 3.22-2.54 5.08-3.7 4.92-3.12 11.05-7 13.48-14.3 2.4-7.23-.1-14.06-2.1-19.54-.92-2.5-1.96-5.32-1.96-6.85 0-1.53 1.04-4.35 1.95-6.84 2-5.5 4.52-12.3 2.1-19.54-2.42-7.3-8.55-11.18-13.47-14.3-1.86-1.17-4.4-2.78-5.08-3.7-.7-.94-1.44-3.86-2-6-1.43-5.56-3.22-12.5-9.35-16.98-4.87-3.57-10.52-4-14.34-4-1.62 0-3.18.1-4.7.17-1.3.08-2.56.14-3.7.14-1.76 0-2.52-.17-2.82-.26-1.17-.4-3.46-2.24-5.3-3.73-4.67-3.75-10.48-8.43-18.44-8.43-7.96 0-13.77 4.68-18.44 8.43-1.84 1.5-4.13 3.33-5.32 3.73-.3.1-1.05.26-2.82.26-1.13 0-2.38-.06-3.7-.13-1.52-.07-3.07-.15-4.7-.15-3.82 0-9.46.42-14.33 4-6.13 4.48-7.92 11.4-9.36 16.98-.56 2.13-1.32 5.05-2 5.98-.7.94-3.23 2.55-5.1 3.73-4.9 3.1-11.03 6.98-13.47 14.3-2.4 7.22.1 14.04 2.1 19.53.93 2.5 1.96 5.3 1.96 6.85 0 1.54-1.04 4.37-1.96 6.86-2 5.48-4.5 12.3-2.1 19.53 2.43 7.3 8.56 11.18 13.47 14.3 1.87 1.16 4.4 2.77 5.1 3.7.68.94 1.44 3.86 2 6 1.04 4.05 2.3 8.84 5.26 12.87v42.15H20V20h206.57v80.5c0 5.52 4.47 10 10 10h80.48V428zm0 0M58.86 110.5H187.7c5.52 0 10-4.48 10-10 0-5.53-4.48-10-10-10H58.86c-5.52 0-10 4.47-10 10 0 5.52 4.48 10 10 10zm0 0M279.3 140.97H58.87c-5.52 0-10 4.48-10 10s4.48 10 10 10H279.3c5.53 0 10-4.48 10-10s-4.47-10-10-10zm0 0M239.3 191.45H58.87c-5.52 0-10 4.48-10 10s4.48 10 10 10H239.3c5.53 0 10-4.48 10-10s-4.47-10-10-10zm0 0M279.3 191.45c-5.5 0-10 4.5-10 10s4.5 10 10 10c5.52 0 10-4.5 10-10s-4.48-10-10-10zm0 0"/></g></svg>