<svg xmlns="http://www.w3.org/2000/svg" width="21" height="14" viewBox="0 0 21 14">
  <g id="ConfigureIcon" transform="translate(0)">
    <path id="Icon_awesome-tools" data-name="Icon awesome-tools" d="M13.877,10.819l-3.243-3.2a2.077,2.077,0,0,0-2.365-.38L5.316,4.323v-1.7L1.77,0,0,1.75l2.659,3.5h1.72L7.329,8.164A2.015,2.015,0,0,0,7.714,10.5l3.243,3.2a1.039,1.039,0,0,0,1.46,0l1.46-1.441a1.012,1.012,0,0,0,0-1.441ZM9.185,6.152A2.933,2.933,0,0,1,11.259,7l.537.53A3.893,3.893,0,0,0,14.06,2.986a.333.333,0,0,0-.557-.15L11.442,4.869,9.562,4.56,9.249,2.7,11.309.67a.329.329,0,0,0-.158-.552A4.025,4.025,0,0,0,7.368,1.154,3.848,3.848,0,0,0,6.227,3.986L8.5,6.231a3.055,3.055,0,0,1,.684-.079ZM6.307,8.394l-1.57-1.55L.516,11.013a1.733,1.733,0,0,0,0,2.474,1.788,1.788,0,0,0,2.507,0l3.423-3.379a2.9,2.9,0,0,1-.138-1.714ZM1.77,12.9a.656.656,0,1,1,.665-.656A.662.662,0,0,1,1.77,12.9Z" transform="translate(0.004)" fill="#949494"/>
    <g id="Group_84" data-name="Group 84" transform="translate(12)">
      <circle id="Ellipse_12" data-name="Ellipse 12" cx="4.5" cy="4.5" r="4.5" fill="#5bab46"/>
      <path id="Icon_awesome-check" data-name="Icon awesome-check" d="M1.61,8.043.069,6.5a.237.237,0,0,1,0-.335L.4,5.832a.237.237,0,0,1,.335,0L1.778,6.87,4,4.647a.237.237,0,0,1,.335,0l.335.335a.237.237,0,0,1,0,.335L1.945,8.043A.237.237,0,0,1,1.61,8.043Z" transform="translate(2.088 -1.845)" fill="#fff"/>
    </g>
  </g>
</svg>
