<svg xmlns="http://www.w3.org/2000/svg" width="512" height="512" viewBox="0 0 453.834 453.834" enable-background="new 0 0 453.834 453.834"><g fill="#353e8f"><path d="M226.93 0C101.63 0 .03 101.6.03 226.9 0 352.27 101.6 453.83 226.93 453.83c125.3 0 226.87-101.6 226.87-226.9C453.83 101.6 352.24 0 226.93 0zm0 423.46c-108.34 0-196.5-88.15-196.5-196.5s88.16-196.5 196.5-196.5c108.35-.03 196.47 88.13 196.47 196.5.03 108.32-88.12 196.5-196.47 196.5zM313.72 177.2l-87.88 87.9-87.9-87.9c-5.9-5.93-15.55-5.93-21.48 0s-5.93 15.56 0 21.5l98.6 98.58c2.97 3.04 6.9 4.43 10.78 4.43 3.92 0 7.8-1.48 10.8-4.42l98.55-98.6c5.9-5.92 5.9-15.55 0-21.48s-15.55-5.93-21.48 0z"/></g></svg>