<?xml version="1.0" encoding="UTF-8"?>
<svg xmlns="http://www.w3.org/2000/svg" xmlns:xlink="http://www.w3.org/1999/xlink" width="34px" height="34px" viewBox="0 0 34 34" version="1.1">
<g id="surface1">
<path style=" stroke:none;fill-rule:nonzero;fill:rgb(20.784314%,24.313725%,56.078431%);fill-opacity:1;" d="M 31.566406 4.777344 C 29.960938 3.210938 27.742188 2.425781 24.914062 2.425781 C 24.128906 2.425781 23.328125 2.5625 22.515625 2.835938 C 21.699219 3.105469 20.941406 3.472656 20.238281 3.933594 C 19.535156 4.394531 18.933594 4.828125 18.429688 5.234375 C 17.921875 5.636719 17.441406 6.066406 16.988281 6.519531 C 16.53125 6.066406 16.050781 5.636719 15.546875 5.234375 C 15.042969 4.828125 14.4375 4.394531 13.734375 3.933594 C 13.035156 3.472656 12.273438 3.105469 11.460938 2.835938 C 10.644531 2.5625 9.84375 2.425781 9.058594 2.425781 C 6.230469 2.425781 4.011719 3.210938 2.40625 4.777344 C 0.800781 6.34375 0 8.519531 0 11.300781 C 0 12.148438 0.148438 13.019531 0.445312 13.917969 C 0.742188 14.8125 1.082031 15.578125 1.460938 16.210938 C 1.839844 16.84375 2.269531 17.457031 2.75 18.058594 C 3.230469 18.660156 3.582031 19.074219 3.800781 19.300781 C 4.023438 19.53125 4.195312 19.695312 4.324219 19.796875 L 16.152344 31.207031 C 16.382812 31.4375 16.65625 31.550781 16.988281 31.550781 C 17.316406 31.550781 17.597656 31.433594 17.824219 31.207031 L 29.636719 19.832031 C 32.53125 16.9375 33.976562 14.09375 33.976562 11.300781 C 33.976562 8.519531 33.175781 6.347656 31.570312 4.78125 Z M 27.984375 18.050781 L 16.988281 28.648438 L 5.972656 18.03125 C 3.609375 15.667969 2.425781 13.421875 2.425781 11.300781 C 2.425781 10.277344 2.5625 9.371094 2.835938 8.589844 C 3.105469 7.804688 3.453125 7.183594 3.878906 6.722656 C 4.300781 6.261719 4.816406 5.882812 5.421875 5.59375 C 6.03125 5.304688 6.625 5.109375 7.203125 5.007812 C 7.785156 4.90625 8.40625 4.855469 9.0625 4.855469 C 9.71875 4.855469 10.429688 5.011719 11.1875 5.335938 C 11.945312 5.660156 12.644531 6.0625 13.28125 6.550781 C 13.917969 7.035156 14.464844 7.492188 14.921875 7.914062 C 15.375 8.339844 15.753906 8.726562 16.058594 9.082031 C 16.285156 9.359375 16.597656 9.5 16.988281 9.5 C 17.378906 9.5 17.691406 9.359375 17.917969 9.082031 C 18.222656 8.726562 18.601562 8.339844 19.054688 7.914062 C 19.511719 7.492188 20.058594 7.035156 20.695312 6.550781 C 21.332031 6.0625 22.03125 5.660156 22.792969 5.335938 C 23.546875 5.015625 24.257812 4.855469 24.914062 4.855469 C 25.570312 4.855469 26.191406 4.902344 26.773438 5.003906 C 27.351562 5.105469 27.949219 5.300781 28.554688 5.589844 C 29.160156 5.882812 29.675781 6.257812 30.097656 6.71875 C 30.523438 7.179688 30.867188 7.800781 31.140625 8.585938 C 31.414062 9.371094 31.546875 10.273438 31.546875 11.296875 C 31.546875 13.421875 30.359375 15.671875 27.980469 18.046875 Z M 27.984375 18.050781 "/>
</g>
</svg>
