<svg xmlns="http://www.w3.org/2000/svg" width="511.626" height="511.626" fill="#353e8f"><path d="M475.37 71.95c-24.18-23.6-57.58-35.4-100.22-35.4-11.8 0-23.84 2.04-36.12 6.13-12.28 4.1-23.7 9.62-34.25 16.56C294.2 66.2 285.13 72.7 277.5 78.8c-7.6 6.1-14.84 12.56-21.7 19.4-6.84-6.84-14.07-13.3-21.7-19.4-7.6-6.1-16.7-12.6-27.25-19.56-10.57-6.95-22-12.47-34.26-16.56-12.3-4.1-24.35-6.14-36.15-6.14-42.64 0-76.04 11.8-100.2 35.4C12.08 95.54 0 128.3 0 170.17c0 12.75 2.24 25.9 6.7 39.4 4.48 13.5 9.58 25.03 15.3 34.54 5.7 9.54 12.17 18.8 19.4 27.86 7.23 9.04 12.52 15.27 15.85 18.7 3.33 3.42 5.94 5.9 7.85 7.42l178.15 171.88c3.43 3.42 7.6 5.14 12.56 5.14s9.17-1.73 12.6-5.15l177.87-171.3c43.58-43.6 65.38-86.42 65.38-128.48 0-41.88-12.1-74.6-36.26-98.2zM421.4 271.8L255.8 431.4 89.95 271.5c-35.6-35.58-53.4-69.37-53.4-101.34 0-15.42 2.06-29.03 6.15-40.83 4.08-11.8 9.3-21.18 15.7-28.12 6.37-6.92 14.12-12.6 23.26-16.96 9.14-4.38 18.08-7.33 26.84-8.85 8.75-1.53 18.08-2.3 27.98-2.3 9.9 0 20.55 2.4 31.97 7.28C179.87 85.22 190.4 91.3 200 98.64c9.6 7.33 17.84 14.18 24.7 20.56 6.85 6.38 12.56 12.22 17.13 17.55 3.42 4.2 8.1 6.3 13.98 6.3 5.9 0 10.6-2.1 14-6.3 4.6-5.33 10.3-11.18 17.15-17.55 6.86-6.38 15.1-13.23 24.7-20.56 9.6-7.33 20.13-13.42 31.55-18.27 11.4-4.86 22.07-7.28 31.97-7.28s19.22.73 27.98 2.25c8.75 1.52 17.7 4.47 26.84 8.85 9.1 4.4 16.9 10.05 23.24 17 6.38 6.94 11.6 16.3 15.7 28.1s6.14 25.43 6.14 40.85c0 31.97-17.9 65.86-53.7 101.64z"/></svg>