<?xml version="1.0" encoding="UTF-8"?>
<svg xmlns="http://www.w3.org/2000/svg" xmlns:xlink="http://www.w3.org/1999/xlink" width="16px" height="16px" viewBox="0 0 16 16" version="1.1">
<g id="surface1">
<path style=" stroke:none;fill-rule:nonzero;fill:rgb(20.784314%,24.313725%,56.078431%);fill-opacity:1;" d="M 8.003906 4.207031 L 2.296875 8.914062 C 2.296875 8.921875 2.292969 8.929688 2.289062 8.945312 C 2.285156 8.957031 2.285156 8.964844 2.285156 8.972656 L 2.285156 13.738281 C 2.285156 13.910156 2.347656 14.0625 2.472656 14.1875 C 2.601562 14.3125 2.75 14.375 2.921875 14.375 L 6.734375 14.375 L 6.734375 10.5625 L 9.277344 10.5625 L 9.277344 14.375 L 13.089844 14.375 C 13.261719 14.375 13.410156 14.3125 13.535156 14.1875 C 13.664062 14.0625 13.726562 13.910156 13.726562 13.738281 L 13.726562 8.972656 C 13.726562 8.945312 13.722656 8.925781 13.714844 8.914062 Z M 15.898438 7.839844 L 13.726562 6.035156 L 13.726562 1.980469 C 13.726562 1.890625 13.695312 1.8125 13.636719 1.753906 C 13.578125 1.695312 13.5 1.664062 13.40625 1.664062 L 11.5 1.664062 C 11.40625 1.664062 11.332031 1.695312 11.273438 1.753906 C 11.214844 1.8125 11.183594 1.890625 11.183594 1.980469 L 11.183594 3.917969 L 8.761719 1.890625 C 8.550781 1.71875 8.296875 1.632812 8.007812 1.632812 C 7.714844 1.632812 7.464844 1.71875 7.25 1.890625 L 0.109375 7.839844 C 0.0429688 7.894531 0.0078125 7.964844 0 8.054688 C -0.00390625 8.144531 0.0195312 8.222656 0.0703125 8.289062 L 0.6875 9.023438 C 0.738281 9.082031 0.808594 9.117188 0.894531 9.132812 C 0.972656 9.140625 1.054688 9.113281 1.132812 9.0625 L 8.003906 3.332031 L 14.875 9.0625 C 14.929688 9.109375 15 9.132812 15.085938 9.132812 L 15.113281 9.132812 C 15.199219 9.117188 15.269531 9.082031 15.324219 9.023438 L 15.941406 8.289062 C 15.992188 8.222656 16.015625 8.144531 16.007812 8.054688 C 16.003906 7.964844 15.964844 7.894531 15.898438 7.84375 Z M 15.898438 7.839844 "/>
</g>
</svg>
