<svg xmlns="http://www.w3.org/2000/svg" width="512" height="512" viewBox="0 0 611.997 611.998" enable-background="new 0 0 611.997 611.998"><g fill="#2f2f2f"><path d="M511.1 300.25c-9.93 0-17.62 7.66-17.62 17.65V559H368.4v-98.45c0-9.23-7.7-17.3-17-17.3h-90.44c-9.94 0-17.96 8.07-17.96 17.3V559H118.24V325.9c0-9.3-7.7-17.03-17.63-17.03-9.3 0-17 7.73-17 17.04v250.76c0 9.3 7.7 17.03 17 17.03h160.36c9.3 0 17-7.74 17-17.04V478.2h55.8v98.46c0 9.3 7.7 17.03 17.64 17.03h159.7c9.3 0 17-7.74 17-17.04V317.9c0-9.98-7.7-17.65-17-17.65zM607 314L467.82 174.22v-95.3c0-9.92-8.02-17.58-17.96-17.58-9.3 0-17 7.66-17 17.58v60.34l-114.8-115.5c-3.53-3.54-7.7-5.46-11.88-5.46-4.8 0-8.98 1.98-12.5 5.47L5.36 312.1c-6.92 6.9-7.37 17.98 0 24.34 6.4 7.4 17.45 6.9 24.37 0l276.45-275.8 275.8 278.4c2.88 2.88 7.06 4.52 12.52 4.52 4.8 0 8.97-1.64 12.5-4.52 6.42-6.43 6.9-18.06 0-25.04z"/></g></svg>