<?xml version="1.0" encoding="UTF-8"?>
<svg xmlns="http://www.w3.org/2000/svg" xmlns:xlink="http://www.w3.org/1999/xlink" width="11px" height="11px" viewBox="0 0 11 11" version="1.1">
<g id="surface1">
<path style=" stroke:none;fill-rule:nonzero;fill:rgb(20.784314%,24.313725%,56.078431%);fill-opacity:1;" d="M 4.441406 5.503906 L 8.554688 1.386719 C 8.667969 1.273438 8.730469 1.121094 8.730469 0.960938 C 8.730469 0.800781 8.667969 0.648438 8.554688 0.535156 L 8.195312 0.175781 C 8.082031 0.0625 7.929688 0 7.769531 0 C 7.609375 0 7.457031 0.0625 7.34375 0.175781 L 2.445312 5.074219 C 2.332031 5.1875 2.269531 5.339844 2.269531 5.503906 C 2.269531 5.664062 2.332031 5.816406 2.445312 5.929688 L 7.339844 10.824219 C 7.453125 10.9375 7.605469 11 7.765625 11 C 7.925781 11 8.078125 10.9375 8.191406 10.824219 L 8.550781 10.464844 C 8.785156 10.230469 8.785156 9.847656 8.550781 9.613281 Z M 4.441406 5.503906 "/>
</g>
</svg>
