<svg xmlns="http://www.w3.org/2000/svg" width="361.118" height="361.118" fill="#e32d2d"><path d="M274.76 141.3V94.2c0-52.03-42.18-94.2-94.2-94.2-52.03 0-94.2 42.17-94.2 94.2v47.1c-17.35 0-31.4 14.06-31.4 31.4v157.02c0 17.34 14.05 31.4 31.4 31.4h188.4c17.35 0 31.4-14.06 31.4-31.4V172.7c0-17.34-14.05-31.4-31.4-31.4zm-157-47.1c0-34.7 28.12-62.8 62.8-62.8 34.68 0 62.8 28.1 62.8 62.8v47.1h-125.6V94.2zm157 235.5H86.36v-157h188.4v157zm-109.9-67.14v20.05c0 8.7 7.03 15.7 15.7 15.7 8.66 0 15.7-7 15.7-15.7V262.6c9.34-5.44 15.7-15.46 15.7-27.05 0-17.34-14.06-31.4-31.4-31.4-17.34 0-31.4 14.06-31.4 31.4 0 11.6 6.36 21.62 15.7 27.06z"/></svg>