<svg xmlns="http://www.w3.org/2000/svg" width="486.733" height="486.733" fill="#353e8f"><path d="M403.88 196.56h-9.48v-44.4C394.4 70.1 329.25 1.5 247.8.04c-2.2-.04-6.66-.04-8.88 0C157.5 1.5 92.34 70.08 92.34 152.18v44.38h-9.5c-14.6 0-26.53 15.1-26.53 33.7V452.9c0 18.6 11.95 33.83 26.57 33.83H403.9c14.6 0 26.53-15.22 26.53-33.83V230.27c0-18.62-11.92-33.7-26.54-33.7zm-130.44 144.8v67.27c0 7.7-6.45 14.23-14.16 14.23h-31.83c-7.7 0-14.16-6.52-14.16-14.23v-67.27c-7.5-7.36-11.86-17.53-11.86-28.8 0-21.33 16.5-39.66 37.46-40.5 2.23-.1 6.68-.1 8.9 0 20.97.84 37.46 19.17 37.46 40.5 0 11.26-4.35 21.44-11.83 28.8zm58.45-144.8H154.82v-44.4c0-48.9 39.74-89.33 88.52-89.33 48.77 0 88.52 40.44 88.52 89.34v44.4z"/></svg>