<?xml version="1.0" encoding="UTF-8"?>
<svg xmlns="http://www.w3.org/2000/svg" xmlns:xlink="http://www.w3.org/1999/xlink" width="22px" height="22px" viewBox="0 0 22 22" version="1.1">
<g id="surface1">
<path style=" stroke:none;fill-rule:nonzero;fill:rgb(20.784314%,24.313725%,56.078431%);fill-opacity:1;" d="M 18.246094 8.878906 L 17.816406 8.878906 L 17.816406 6.875 C 17.816406 3.167969 14.875 0.0664062 11.195312 0 C 11.09375 0 10.894531 0 10.792969 0 C 7.113281 0.0664062 4.171875 3.164062 4.171875 6.875 L 4.171875 8.878906 L 3.742188 8.878906 C 3.082031 8.878906 2.542969 9.5625 2.542969 10.402344 L 2.542969 20.460938 C 2.542969 21.300781 3.082031 21.988281 3.742188 21.988281 L 18.246094 21.988281 C 18.90625 21.988281 19.445312 21.300781 19.445312 20.460938 L 19.445312 10.402344 C 19.445312 9.5625 18.90625 8.878906 18.246094 8.878906 Z M 12.351562 15.421875 L 12.351562 18.460938 C 12.351562 18.808594 12.0625 19.101562 11.710938 19.101562 L 10.273438 19.101562 C 9.925781 19.101562 9.636719 18.808594 9.636719 18.460938 L 9.636719 15.421875 C 9.296875 15.089844 9.097656 14.628906 9.097656 14.121094 C 9.097656 13.15625 9.84375 12.328125 10.792969 12.289062 C 10.890625 12.285156 11.09375 12.285156 11.195312 12.289062 C 12.140625 12.328125 12.886719 13.15625 12.886719 14.121094 C 12.886719 14.628906 12.691406 15.089844 12.351562 15.421875 Z M 14.992188 8.878906 L 6.992188 8.878906 L 6.992188 6.875 C 6.992188 4.664062 8.789062 2.839844 10.992188 2.839844 C 13.195312 2.839844 14.992188 4.664062 14.992188 6.875 Z M 14.992188 8.878906 "/>
</g>
</svg>
