<svg xmlns="http://www.w3.org/2000/svg" fill="#fff" viewBox="0 0 511.999 511.999" enable-background="new 0 0 511.999 511.999"><path d="M481.1 27.94H30.9C13.88 27.94 0 41.8 0 58.84v310.82c0 17.05 13.87 30.9 30.9 30.9h154.27v22.5c0 20.62-16.78 37.4-37.4 37.4h-34c-6.5 0-11.8 5.28-11.8 11.8 0 6.52 5.3 11.8 11.8 11.8h284.45c6.5 0 11.8-5.28 11.8-11.8 0-6.52-5.3-11.8-11.8-11.8h-34c-20.62 0-37.4-16.78-37.4-37.4v-22.48H481.1c17.03 0 30.9-13.87 30.9-30.9V58.84c0-17.05-13.87-30.9-30.9-30.9zM195.9 460.46c8.05-10.34 12.86-23.3 12.86-37.4V400.6h94.44v22.5c0 14.07 4.8 27.04 12.86 37.38H195.92zm292.47-90.8c0 4.03-3.28 7.3-7.3 7.3H30.9c-4.02 0-7.3-3.27-7.3-7.3v-62.03h464.8v62.04zm0-85.63H23.6V58.85c0-4.03 3.28-7.3 7.3-7.3h450.2c4.02 0 7.3 3.27 7.3 7.3v225.18z"/><circle cx="256.003" cy="342.305" r="12.738"/><path d="M276.24 109.25c-4.6-4.6-12.08-4.6-16.7 0l-83.4 83.42c-4.62 4.6-4.62 12.08 0 16.7 2.3 2.3 5.32 3.45 8.34 3.45 3.02 0 6.04-1.15 8.34-3.46l83.42-83.4c4.6-4.62 4.6-12.1 0-16.7zm49.44 48.35c-4.6-4.62-12.08-4.62-16.7 0l-33.22 33.22c-4.6 4.6-4.6 12.08 0 16.7 2.3 2.3 5.32 3.45 8.34 3.45 3.02 0 6.04-1.15 8.35-3.46l33.23-33.2c4.6-4.6 4.6-12.1 0-16.7z"/></svg>