<svg xmlns="http://www.w3.org/2000/svg" width="791.998" height="791.998" fill="#fff"><path d="M560.6 208.97C522.33 166.8 474.74 142.8 417.87 137c-1.55-53-16.14-90.2-42.94-113.35-9.96-8.6-20.9-15.08-33.28-18.57C329.25 1.6 319.6-.32 313 .05c-6.56.4-10.82.77-12.37 1.55-12 1.54-19.34 12.38-17.4 24.37 1.93 12 13.14 18.96 24.36 17.4h.75c4.26 0 23.03-2.15 39.08 12 16.84 14.87 25.9 42.57 27.47 81.64-111.42 7.76-201.2 108.7-201.2 220.94v211.63c0 61.12 21.5 113.93 65 157.84 42.78 43.14 95.2 64.6 156.7 64.6h1.17c60.35 0 117.42-25.33 156.7-65 39.64-40.03 65-97.1 65-157.44V357.92c0-56.87-19.36-106.78-57.67-148.95zm14.72 360.58c0 96.74-81.63 181.18-178.74 179.9-49.13-.66-91.7-17.8-126.9-53s-53-77.77-53-126.9V357.92c0-47.6 16.34-88.9 49.13-123.42 33-34.72 72.7-55.7 120.35-55.7h23.6c46.56 0 85.5 22.82 117.6 57.25 32.13 34.43 48 75.05 48 121.87v211.63zm-172.55-330.4H390c-14.32 0-26.2 5.12-36.36 15.08-9.97 9.77-15.1 22.06-15.1 36.37v89.76c0 13.54 5.04 25.53 15.1 35.6C363.7 426 375.68 431.03 390 431.03h12.77c13.93 0 25.92-5.03 35.6-14.7 10.05-10.06 15.08-22.06 15.08-35.98V290.6c0-14.3-5.13-26.2-15.1-36.37-9.76-9.96-21.66-15.08-35.58-15.08zm7.74 141.2c0 4.27-3.46 7.74-7.7 7.74H390c-1.16 0-3.1-.8-6.2-2.35-1.54-1.54-2.32-3.48-2.32-5.4V290.6c0-4.64 3.88-7.73 8.52-7.73h12.77c4.25 0 7.74 3.1 7.74 7.73v89.76z"/></svg>