<svg xmlns="http://www.w3.org/2000/svg" width="550.801" height="550.801" fill="#353e8f"><path d="M267.34 414.7c-6.6 0-10.88.58-13.4 1.16v85.72c2.52.6 6.6.6 10.3.6 26.8.18 44.3-14.6 44.3-45.9.2-27.2-15.74-41.58-41.2-41.58zm-114.5-.4c-6.03 0-10.1.6-12.25 1.17v38.7c2.5.57 5.6.77 9.9.77 15.73 0 25.44-7.97 25.44-21.4 0-12.03-8.36-19.23-23.12-19.23zM475.1 132c-.04-2.53-.84-5.03-2.57-7L366.33 3.7c-.03-.04-.07-.05-.1-.08-.62-.7-1.35-1.3-2.13-1.8-.23-.16-.48-.3-.72-.43-.67-.4-1.38-.7-2.13-.9-.2-.08-.38-.16-.58-.2-.8-.2-1.63-.3-2.47-.3h-261C85.3 0 75.6 9.7 75.6 21.6v507.6c0 11.9 9.7 21.6 21.6 21.6h356.4c11.9 0 21.6-9.7 21.6-21.6v-396c0-.4-.06-.8-.1-1.2zM193.26 463.86c-10.1 9.53-25.07 13.8-42.57 13.8-3.9 0-7.4-.2-10.1-.57v46.82H111.2V394.67c9.13-1.55 21.97-2.72 40.05-2.72 18.25 0 31.28 3.5 40.02 10.5 8.36 6.6 14 17.5 14 30.32 0 12.84-4.3 23.72-12.07 31.1zm125 44.52c-13.8 11.46-34.8 16.9-60.44 16.9-15.35 0-26.23-.97-33.63-1.94v-128.7c10.85-1.73 25.05-2.7 40-2.7 24.88 0 41 4.47 53.66 14 13.6 10.1 22.16 26.23 22.16 49.36 0 25.08-9.14 42.38-21.8 53.07zm121.3-91.17h-50.34v29.95h47.04v24.1h-47.04v52.68H359.5v-131h80.07v24.3zM97.2 366.77V21.6h250.2v110.52c0 5.96 4.83 10.8 10.8 10.8h95.4v223.83H97.2zm289-134.62c-.63-.05-15.85-1.44-39.2-1.44-7.33 0-14.7.12-21.98.4-46.13-34.63-83.92-69.27-104.15-88.7.37-2.13.63-3.82.75-5.12 2.66-28.17-.3-47.2-8.8-56.52-5.55-6.1-13.7-8.13-22.22-5.8-5.3 1.38-15.07 6.5-18.2 16.94-3.47 11.54 2.1 25.54 16.7 41.78.23.24 5.2 5.44 14.2 14.24-5.86 27.9-21.18 88.15-28.62 117.07-17.46 9.32-32 20.56-43.27 33.46l-.7.84-.5 1c-1.16 2.46-6.7 15.1-2.54 25.27 1.9 4.62 5.46 8 10.3 9.77l1.3.35s1.17.23 3.23.23c9 0 31.24-4.73 43.16-48.7l2.9-11.13c41.63-20.23 93.68-26.76 131.4-28.6 19.42 14.4 38.73 27.63 57.44 39.34l.6.35c.9.45 9.1 4.5 18.7 4.5 13.74 0 23.77-8.42 27.5-23.1l.2-1c1.04-8.4-1.07-15.96-6.1-21.87-10.6-12.46-30.33-13.55-32.1-13.6zm-243.4 87.6c-.07-.1-.1-.18-.15-.3-.9-2.14.18-7.37 1.76-11.2 6.8-7.6 14.97-14.57 24.38-20.85-9.16 29.65-22.5 32.2-25.95 32.35zM201 122.7c-14.07-15.67-13.85-23.43-13.1-26.05 1.24-4.37 6.85-6.02 6.9-6.03 2.82-.77 4.54-.62 6.06 1.06 3.45 3.8 6.42 15.23 5.25 36.22-3.32-3.34-5.1-5.2-5.1-5.2zm-7.27 133.37l.26-.93h-.06c7.05-27.58 17.2-67.98 23.05-93.94l.2.2.02-.12c18.9 17.8 47.88 43.83 82.58 70.9l-.4.02.6.43c-32.7 2.77-71.73 9.2-106.26 23.44zm214.7 9.05c-2.5 9.15-7.3 10.4-11.68 10.4-5.1 0-10-2.12-11.12-2.64-12.74-7.98-25.77-16.68-38.92-26 .1 0 .2 0 .3 0 22.58 0 37.6 1.38 38.2 1.42 3.76.14 15.67 1.9 20.8 7.94 2 2.36 2.8 5.2 2.43 8.88z"/></svg>