<?xml version="1.0" encoding="iso-8859-1"?>
<!-- Generator: Adobe Illustrator 19.0.0, SVG Export Plug-In . SVG Version: 6.00 Build 0)  -->
<svg fill="#353e8f" version="1.1" id="Capa_1" xmlns="http://www.w3.org/2000/svg" xmlns:xlink="http://www.w3.org/1999/xlink" x="0px" y="0px"
	 viewBox="0 0 512 512" style="enable-background:new 0 0 512 512;" xml:space="preserve">
<g>
	<g>
		<path d="M59.671,204.258c-16.542,0-30,13.457-30,29.999s13.458,29.999,30,29.999s29.999-13.457,29.999-29.999
			C89.67,217.716,76.213,204.258,59.671,204.258z M59.671,244.257c-5.514,0-10-4.485-10-9.999s4.486-9.999,10-9.999
			c5.514,0,9.999,4.486,9.999,9.999C69.67,239.771,65.185,244.257,59.671,244.257z"/>
	</g>
</g>
<g>
	<g>
		<path d="M471.534,207.109c-5.523,0-10,4.477-10,10v34.288c0,5.523,4.477,10,10,10c5.522,0,10-4.477,10-10v-34.288
			C481.534,211.586,477.057,207.109,471.534,207.109z"/>
	</g>
</g>
<g>
	<g>
		<path d="M470.438,21.741H41.563C18.646,21.741,0,40.385,0,63.304v338.9c0,22.917,18.646,41.561,41.563,41.561h297.192
			l17.498,40.464c1.583,3.661,5.19,6.031,9.179,6.031c3.988,0,7.596-2.37,9.179-6.031l17.5-40.464h78.326
			c22.918,0,41.563-18.644,41.563-41.561v-338.9C512.001,40.385,493.355,21.741,470.438,21.741z M375.168,159.536h-19.47v-27.069
			c0-2.181,1.842-4.024,4.021-4.024h11.426c2.181,0,4.023,1.843,4.023,4.024V159.536z M375.169,179.536v221.756h-19.471V179.536
			H375.169z M375.17,432.554l-9.737,22.512l-9.734-22.512v-11.262h19.471V432.554z M371.146,108.443H359.72
			c-13.245,0-24.021,10.777-24.021,24.024V393.56H119.341V78.141h312.5V393.56h-36.672V132.466
			C395.169,119.219,384.393,108.443,371.146,108.443z M470.437,423.765h-75.269V413.56h46.672c5.523,0,10-4.477,10-10V68.141
			c0-5.523-4.477-10-10-10h-332.5c-5.522,0-10,4.477-10,10V403.56c0,5.523,4.478,10,10,10h226.357v10.204H41.563
			c-11.891,0-21.563-9.672-21.563-21.561v-338.9c0-11.89,9.673-21.563,21.563-21.563h428.874c11.891,0,21.564,9.673,21.564,21.563
			v338.9h0C492.001,414.093,482.328,423.765,470.437,423.765z"/>
	</g>
</g>
<g>
	<g>
		<path d="M144.518,174.036c-5.522,0-10,4.477-10,10v0.781c0,5.523,4.478,10,10,10c5.522,0,10-4.477,10-10v-0.781
			C154.518,178.513,150.04,174.036,144.518,174.036z"/>
	</g>
</g>
<g>
	<g>
		<path d="M169.532,93.32h-25.015c-5.522,0-10,4.477-10,10v53.632c0,5.523,4.478,10,10,10c5.522,0,10-4.477,10-10V113.32h15.015
			c5.523,0,10-4.477,10-10S175.055,93.32,169.532,93.32z"/>
	</g>
</g>
<g>
	<g>
		<path d="M79.67,289.568H39.671c-5.522,0-10,4.477-10,10s4.477,10,10,10H79.67c5.522,0,10-4.477,10-10
			S85.192,289.568,79.67,289.568z"/>
	</g>
</g>
<g>
	<g>
		<path d="M79.67,158.943H39.671c-5.522,0-10,4.477-10,10c0,5.523,4.477,10,10,10H79.67c5.522,0,10-4.477,10-10
			C89.67,163.421,85.192,158.943,79.67,158.943z"/>
	</g>
</g>
<g>
	<g>
		<path d="M79.67,339.57H39.671c-5.522,0-10,4.477-10,10s4.477,10,10,10H79.67c5.522,0,10-4.477,10-10S85.192,339.57,79.67,339.57z"
			/>
	</g>
</g>
<g>
	<g>
		<path d="M79.67,108.943H39.671c-5.522,0-10,4.477-10,10c0,5.523,4.477,10,10,10H79.67c5.522,0,10-4.477,10-10
			C89.67,113.421,85.192,108.943,79.67,108.943z"/>
	</g>
</g>
<g>
</g>
<g>
</g>
<g>
</g>
<g>
</g>
<g>
</g>
<g>
</g>
<g>
</g>
<g>
</g>
<g>
</g>
<g>
</g>
<g>
</g>
<g>
</g>
<g>
</g>
<g>
</g>
<g>
</g>
</svg>
