<svg xmlns="http://www.w3.org/2000/svg" width="612" height="612" fill="#858484"><path d="M230.72 181.2c-2.4 2.6-3.95 4.26-5.12 5.52 2.18-2.34 5.12-5.5 5.12-5.5zm106.24 19.68c7.96 9.8 11.9 21.33 11.9 34.63 0 9.54-2.72 18.7-8.14 27.54-2.98 5-6.9 9.85-11.8 14.47l-16.3 16.1c-15.63 15.36-25.73 28.96-30.35 40.87-4.62 11.88-6.93 27.54-6.93 46.95h36.28c0-17.1 1.95-30.02 5.8-38.8 3.88-8.75 12.34-19.43 25.38-32.1 17.94-17.37 29.85-30.56 35.75-39.5s8.87-20.66 8.87-35.07c0-23.75-8.04-43.28-24.14-58.58-16.1-15.3-37.53-22.92-64.3-22.92-28.92 0-51.68 8.93-68.26 26.8s-24.87 41.44-24.87 70.78h36.28c.66-17.65 3.48-31.17 8.34-40.55 8.68-16.83 24.37-25.25 47.07-25.25 18.33 0 31.5 4.88 39.42 14.68zM612 306C612 137 475 0 306 0S0 137 0 306s137 306 306 306 306-137 306-306zm-584.18 0C27.82 152.36 152.36 27.82 306 27.82S584.18 152.36 584.18 306 459.64 584.18 306 584.18 27.82 459.64 27.82 306zM274.5 415.2h40.57v42.38H274.5z"/></svg>