<svg xmlns="http://www.w3.org/2000/svg" fill="#fff" viewBox="0 0 489.8 489.8" enable-background="new 0 0 489.8 489.8"><circle cx="245" cy="453.9" r="26.8" fill="#A7A9AC"/><circle cx="422.8" cy="453.9" r="26.8" fill="#A7A9AC"/><circle cx="67" cy="453.9" r="26.8" fill="#A7A9AC"/><path d="M442.9 30.5c0-16.8-13.7-30.5-30.5-30.5H77.6C60.8 0 47.1 13.7 47.1 30.5v69.1c0 8.3 3.4 15.9 8.8 21.4-5.4 5.5-8.8 13.1-8.8 21.4v69.1c0 8.3 3.4 15.9 8.8 21.4-5.4 5.5-8.8 13.1-8.8 21.4v69.1c0 16.8 13.7 30.5 30.5 30.5h334.8c16.8 0 30.5-13.7 30.5-30.5v-69.1c0-8.3-3.4-15.9-8.8-21.4 5.4-5.5 8.8-13.1 8.8-21.4v-69.1c0-8.3-3.4-15.9-8.8-21.4 5.4-5.5 8.8-13.1 8.8-21.4V30.5zm-377.7 0c0-6.8 5.5-12.3 12.3-12.3h334.8c6.8 0 12.4 5.5 12.4 12.3v69.1c0 6.8-5.5 12.4-12.4 12.4H77.6c-6.8 0-12.3-5.5-12.3-12.4V30.5h-.1zm359.6 111.9v69.1c0 6.8-5.5 12.3-12.4 12.3H77.6c-6.8 0-12.3-5.5-12.3-12.3v-69.1c0-6.8 5.5-12.3 12.3-12.3h334.8c6.8 0 12.4 5.5 12.4 12.3zm0 181c0 6.8-5.5 12.3-12.4 12.3H77.6c-6.8 0-12.3-5.5-12.3-12.3v-69.1c0-6.8 5.5-12.3 12.3-12.3h334.8c6.8 0 12.4 5.5 12.4 12.3v69.1zM241 74.1h113c5 0 9.1-4.1 9.1-9.1s-4.1-9.1-9.1-9.1H241c-5 0-9.1 4.1-9.1 9.1s4.1 9.1 9.1 9.1z"/><circle cx="148.8" cy="65.1" r="10.8"/><path d="M241 186h113c5 0 9.1-4.1 9.1-9.1s-4.1-9.1-9.1-9.1H241c-5 0-9.1 4.1-9.1 9.1.1 5.1 4.1 9.1 9.1 9.1zm113 93.8H241c-5 0-9.1 4.1-9.1 9.1s4.1 9.1 9.1 9.1h113c5 0 9.1-4.1 9.1-9.1s-4.1-9.1-9.1-9.1z"/><circle cx="148.8" cy="177" r="10.8"/><circle cx="148.8" cy="288.9" r="10.8"/><path d="M422.8 418c-16.6 0-30.6 11.4-34.7 26.8H279.7c-3.3-12.5-13.1-22.3-25.6-25.6v-28.4c0-5-4.1-9.1-9.1-9.1s-9.1 4.1-9.1 9.1v28.4c-12.5 3.3-22.3 13.1-25.6 25.6H101.6c-4-15.4-18-26.8-34.7-26.8-19.8 0-35.9 16.1-35.9 35.9s16.1 35.9 35.9 35.9c16.6 0 30.6-11.4 34.7-26.8h108.7c4 15.4 18 26.8 34.7 26.8 16.7 0 30.6-11.4 34.7-26.8h108.5c4 15.4 18 26.8 34.7 26.8 19.8 0 35.9-16.1 35.9-35.9s-16.2-35.9-36-35.9zM67 471.6c-9.8 0-17.8-8-17.8-17.8S57.2 436 67 436s17.8 8 17.8 17.8-8.1 17.8-17.8 17.8zm178 0c-9.8 0-17.8-8-17.8-17.8s8-17.8 17.8-17.8 17.8 8 17.8 17.8-8 17.8-17.8 17.8zm177.8 0c-9.8 0-17.8-8-17.8-17.8s8-17.8 17.8-17.8 17.8 8 17.8 17.8-8 17.8-17.8 17.8z"/></svg>