<svg xmlns="http://www.w3.org/2000/svg" viewBox="0 0 487.1 487.1" enable-background="new 0 0 487.1 487.1"><g fill="#fff"><path d="M342.3 137.98H385l-63.3-108.6c-5.1-8.8-16.4-11.8-25.2-6.6-8.8 5.1-11.8 16.4-6.6 25.2l52.4 90zM197.4 47.98c5.1-8.8 2.2-20.1-6.6-25.2s-20.1-2.2-25.2 6.6l-63.3 108.7H145l52.4-90.1zM455.7 171.28H31.3c-17.3 0-31.3 14-31.3 31.3v34.7c0 17.3 14 31.3 31.3 31.3h9.8l30.2 163.7c3.8 19.3 21.4 34.6 39.7 34.6h90.8c8 0 18.4 0 29 0H250c10.6 0 21 0 29 0h90.8c18.3 0 35.9-15.3 39.7-34.6l30.4-163.8h15.9c17.3 0 31.3-14 31.3-31.3v-34.7c-.1-17.2-14.1-31.2-31.4-31.2zm-282.9 163.6v70.6c0 10.1-8.2 17.7-17.7 17.7-10.1 0-17.7-8.2-17.7-17.7v-99c0-10.1 8.2-17.7 17.7-17.7 10.1 0 17.7 8.2 17.7 17.7v28.4zm56.8 0v70.6c0 10.1-8.2 17.7-17.7 17.7-10.1 0-17.7-8.2-17.7-17.7v-99c0-10.1 8.2-17.7 17.7-17.7s17.7 8.2 17.7 17.7v28.4zm57.1 41v29.6c0 9.5-7.6 17.7-17.7 17.7-9.5 0-17.7-7.6-17.7-17.7v-99c0-9.5 8.2-17.7 17.7-17.7s17.7 7.6 17.7 17.7v69.4zm56.8 0v29.6c0 9.5-7.6 17.7-17.7 17.7-9.5 0-17.7-7.6-17.7-17.7v-99c0-9.5 7.6-17.7 17.7-17.7 9.5 0 17.7 7.6 17.7 17.7v69.4z"/></g></svg>