<svg fill="white" xmlns="http://www.w3.org/2000/svg" viewBox="0 0 495.401 495.401" enable-background="new 0 0 495.401 495.401"><g><path d="M185.05 381.53c-22.85 0-41.38 18.52-41.38 41.36 0 22.85 18.53 41.37 41.38 41.37 22.84 0 41.37-18.52 41.37-41.38 0-22.85-18.53-41.37-41.37-41.37zM365.62 381.53c-22.86 0-41.38 18.52-41.38 41.36 0 22.85 18.52 41.37 41.38 41.37 22.85 0 41.38-18.52 41.38-41.38 0-22.85-18.53-41.37-41.38-41.37zM469.56 154.74l-229.2-.02c-11.45 0-20.74 9.3-20.74 20.75s9.3 20.75 20.75 20.75h202.77l-12.86 43.52-206.16.04c-10.63 0-19.25 8.62-19.25 19.25 0 10.64 8.62 19.25 19.25 19.25l194.76.08-12.1 40.7H174.47L159.04 196.2 144.32 76.46c-1.2-9.47-8.06-17.25-17.32-19.6l-98-25C16.56 28.66 3.9 36.2.73 48.63s4.34 25.1 16.78 28.28L100.18 98l32.2 241.6s1.1 28.18 26.7 28.18h256.8c21.5 0 25.67-22.44 25.67-22.44l50.9-151.16c0-.02 15.1-39.44-22.88-39.44z"/></g></svg>