<svg xmlns="http://www.w3.org/2000/svg" width="52" height="52" viewBox="0 0 52 52">
  <g id="UserButton" transform="translate(-219.248 -72)">
    <circle id="Ellipse_8" data-name="Ellipse 8" cx="26" cy="26" r="26" transform="translate(219.248 72)" fill="#f6f6f6"/>
    <g id="Icon_feather-user" data-name="Icon feather-user" transform="translate(228.476 78.881)">
      <path id="Path_42" data-name="Path 42" d="M27.545,30.579V27.886A5.386,5.386,0,0,0,22.159,22.5H11.386A5.386,5.386,0,0,0,6,27.886v2.693" transform="translate(0 -1.841)" fill="rgba(0,0,0,0)"/>
      <path id="Path_42_-_Outline" data-name="Path 42 - Outline" d="M27.545,32.079a1.5,1.5,0,0,1-1.5-1.5V27.886A3.891,3.891,0,0,0,22.159,24H11.386A3.886,3.886,0,0,0,7.5,27.886v2.693a1.5,1.5,0,0,1-3,0V27.886A6.886,6.886,0,0,1,11.386,21H22.159a6.894,6.894,0,0,1,6.886,6.886v2.693A1.5,1.5,0,0,1,27.545,32.079Z" transform="translate(0 -1.841)" fill="#363e8f"/>
      <path id="Path_43" data-name="Path 43" d="M17.386,3A6.886,6.886,0,1,1,10.5,9.886,6.894,6.894,0,0,1,17.386,3Zm0,10.772A3.886,3.886,0,1,0,13.5,9.886,3.891,3.891,0,0,0,17.386,13.772Z" transform="translate(-0.614)" fill="#363e8f"/>
    </g>
  </g>
</svg>
