<svg xmlns="http://www.w3.org/2000/svg" width="460" height="460"><path fill="#fd7d1a" d="M279.27 392.2h-30.5V112.57h128.57L322.88 199c-2.77 4.38-1.45 10.18 2.93 12.94 1.6.98 3.3 1.44 5 1.44 3.14 0 6.18-1.55 7.97-4.37L386 134.08 433.2 209c2.76 4.4 8.55 5.7 12.93 2.94 4.4-2.76 5.7-8.56 2.94-12.94l-54.5-86.42h.7c8.03 0 14.54-6.5 14.54-14.54 0-8.03-6.5-14.54-14.53-14.54h-106.9c-6.04-8.78-14.96-15.44-25.4-18.6C261.5 48 247.3 34.76 230 34.76c-17.3 0-31.48 13.26-32.97 30.16-10.43 3.16-19.35 9.82-25.4 18.6H64.7c-8.04 0-14.55 6.5-14.55 14.54 0 8.03 6.5 14.54 14.54 14.54h.66L10.9 199c-2.75 4.38-1.44 10.18 2.95 12.94 1.55.98 3.28 1.44 5 1.44 3.1 0 6.15-1.55 7.93-4.37l47.24-74.93L121.25 209c2.76 4.4 8.56 5.7 12.94 2.94 4.35-2.76 5.7-8.56 2.9-12.94l-54.46-86.42h128.58v279.6h-30.5c-18.27 0-33.07 14.8-33.07 33.07H312.3c0-18.26-14.8-33.06-33.05-33.06zM143.03 223.36H5c-2.76 0-5 2.24-5 5 0 40.8 33.2 74.02 74.02 74.02 40.8 0 74.02-33.2 74.02-74.02 0-2.76-2.24-5-5-5zm311.97 0H316.96c-2.76 0-5 2.24-5 5 0 40.8 33.2 74.02 74.02 74.02 40.82 0 74.02-33.2 74.02-74.02 0-2.76-2.24-5-5-5z"/></svg>