<?xml version="1.0" encoding="UTF-8"?>
<svg xmlns="http://www.w3.org/2000/svg" xmlns:xlink="http://www.w3.org/1999/xlink" width="46px" height="46px" viewBox="0 0 46 46" version="1.1">
<g id="surface1">
<path style=" stroke:none;fill-rule:nonzero;fill:rgb(20.784314%,24.313725%,56.078431%);fill-opacity:1;" d="M 27.925781 39.21875 L 24.878906 39.21875 L 24.878906 11.257812 L 37.734375 11.257812 L 32.289062 19.898438 C 32.011719 20.339844 32.144531 20.917969 32.582031 21.195312 C 32.742188 21.292969 32.910156 21.339844 33.082031 21.339844 C 33.398438 21.339844 33.699219 21.183594 33.882812 20.902344 L 38.601562 13.410156 L 43.320312 20.902344 C 43.597656 21.339844 44.175781 21.472656 44.613281 21.195312 C 45.054688 20.917969 45.183594 20.339844 44.90625 19.902344 L 39.457031 11.257812 L 39.527344 11.257812 C 40.332031 11.257812 40.980469 10.609375 40.980469 9.804688 C 40.980469 9.003906 40.332031 8.351562 39.53125 8.351562 L 28.839844 8.351562 C 28.234375 7.472656 27.34375 6.808594 26.300781 6.492188 C 26.148438 4.800781 24.730469 3.476562 23 3.476562 C 21.269531 3.476562 19.851562 4.804688 19.703125 6.492188 C 18.660156 6.808594 17.769531 7.476562 17.164062 8.351562 L 6.46875 8.351562 C 5.664062 8.351562 5.015625 9.003906 5.015625 9.808594 C 5.015625 10.609375 5.664062 11.261719 6.46875 11.261719 L 6.53125 11.261719 L 1.089844 19.898438 C 0.816406 20.339844 0.945312 20.917969 1.386719 21.195312 C 1.539062 21.292969 1.714844 21.339844 1.886719 21.339844 C 2.195312 21.339844 2.5 21.183594 2.679688 20.902344 L 7.402344 13.410156 L 12.125 20.902344 C 12.402344 21.339844 12.980469 21.472656 13.417969 21.195312 C 13.851562 20.917969 13.988281 20.339844 13.710938 19.902344 L 8.261719 11.257812 L 21.121094 11.257812 L 21.121094 39.21875 L 18.070312 39.21875 C 16.242188 39.21875 14.765625 40.699219 14.765625 42.523438 L 31.230469 42.523438 C 31.230469 40.699219 29.75 39.21875 27.925781 39.21875 Z M 14.304688 22.335938 L 0.5 22.335938 C 0.222656 22.335938 0 22.558594 0 22.835938 C 0 26.914062 3.320312 30.238281 7.402344 30.238281 C 11.480469 30.238281 14.804688 26.917969 14.804688 22.835938 C 14.804688 22.558594 14.578125 22.335938 14.304688 22.335938 Z M 45.5 22.335938 L 31.695312 22.335938 C 31.421875 22.335938 31.195312 22.558594 31.195312 22.835938 C 31.195312 26.914062 34.515625 30.238281 38.597656 30.238281 C 42.679688 30.238281 46 26.917969 46 22.835938 C 46 22.558594 45.777344 22.335938 45.5 22.335938 Z M 45.5 22.335938 "/>
</g>
</svg>
