<svg xmlns="http://www.w3.org/2000/svg" width="460" height="460"><path fill="#353e8f" d="M279.27 392.2h-30.5V112.57h128.57L322.88 199c-2.77 4.38-1.45 10.18 2.93 12.94 1.6.98 3.3 1.44 5 1.44 3.16 0 6.2-1.55 8-4.37l47.2-74.9 47.2 74.9c2.76 4.4 8.55 5.7 12.93 2.94 4.4-2.76 5.7-8.56 2.94-12.94l-54.5-86.42h.7c8.03 0 14.54-6.5 14.54-14.54 0-8.03-6.5-14.54-14.5-14.54H288.4c-6.05-8.78-14.97-15.44-25.4-18.6-1.5-16.9-15.7-30.14-33-30.14s-31.48 13.26-32.97 30.16c-10.43 3.16-19.35 9.82-25.4 18.6H64.7c-8.04 0-14.55 6.5-14.55 14.54 0 8.03 6.5 14.54 14.54 14.54h.64L10.9 199c-2.75 4.38-1.44 10.18 2.95 12.94 1.55.98 3.28 1.44 5 1.44 3.1 0 6.15-1.55 7.93-4.37l47.24-74.9 47.23 74.9c2.76 4.4 8.56 5.7 12.94 2.94 4.33-2.76 5.7-8.56 2.9-12.94L82.6 112.58H211.2v279.6h-30.5c-18.26 0-33.06 14.8-33.06 33.07H312.3c0-18.26-14.8-33.06-33.05-33.06zM143.03 223.36H5c-2.76 0-5 2.24-5 5 0 40.8 33.2 74.02 74.02 74.02 40.8 0 74.02-33.2 74.02-74.02 0-2.76-2.24-5-5-5zm311.97 0H316.96c-2.76 0-5 2.24-5 5 0 40.8 33.2 74.02 74.02 74.02 40.82 0 74.02-33.2 74.02-74.02 0-2.76-2.24-5-5-5z"/></svg>